<svg width="390" height="840" viewBox="0 0 390 840" fill="none" xmlns="http://www.w3.org/2000/svg">
<rect width="390" height="840" rx="30" fill="#FFD4D4"/>
<rect x="128.5" y="356" width="128" height="128" rx="20" fill="#FFD4D4"/>
<path d="M187.5 387C189.34 387.003 191.104 387.735 192.404 389.036C193.705 390.337 194.437 392.1 194.44 393.94V446.06C194.345 447.836 193.572 449.508 192.281 450.732C190.99 451.955 189.279 452.637 187.5 452.637C185.721 452.637 184.01 451.955 182.719 450.732C181.428 449.508 180.655 447.836 180.56 446.06V393.94C180.563 392.1 181.295 390.337 182.596 389.036C183.897 387.735 185.66 387.003 187.5 387Z" fill="#E8A2A2"/>
<path d="M196.44 440.06V393.94C196.535 392.164 197.308 390.492 198.599 389.268C199.89 388.045 201.601 387.363 203.38 387.363C205.159 387.363 206.87 388.045 208.161 389.268C209.452 390.492 210.225 392.164 210.32 393.94V446.06C210.225 447.836 209.452 449.508 208.161 450.732C206.87 451.955 205.159 452.637 203.38 452.637C201.601 452.637 199.89 451.955 198.599 450.732C197.308 449.508 196.535 447.836 196.44 446.06V440.06Z" fill="#C56B6B"/>
<path d="M187.5 417H180.56V423.94C180.509 424.883 180.651 425.826 180.977 426.712C181.303 427.598 181.806 428.408 182.456 429.094C183.105 429.779 183.887 430.325 184.755 430.697C185.622 431.07 186.556 431.263 187.5 431.263C188.444 431.263 189.378 431.07 190.246 430.697C191.113 430.325 191.895 429.779 192.545 429.094C193.194 428.408 193.697 427.598 194.023 426.712C194.349 425.826 194.491 424.883 194.44 423.94V417H187.5ZM189.98 390.94C189.949 385.442 188.328 380.07 185.312 375.474C182.295 370.877 178.013 367.251 172.981 365.035C167.949 362.819 162.384 362.106 156.956 362.983C151.528 363.861 146.471 366.29 142.394 369.979C138.316 373.668 135.394 378.458 133.979 383.771C132.565 389.084 132.718 394.692 134.421 399.92C136.124 405.148 139.304 409.771 143.577 413.231C147.85 416.691 153.033 418.841 158.5 419.42C158.449 420.363 158.591 421.306 158.917 422.192C159.243 423.078 159.746 423.888 160.396 424.574C161.045 425.259 161.827 425.805 162.695 426.177C163.562 426.55 164.496 426.743 165.44 426.743C166.384 426.743 167.318 426.55 168.186 426.177C169.053 425.805 169.835 425.259 170.485 424.574C171.134 423.888 171.637 423.078 171.963 422.192C172.289 421.306 172.431 420.363 172.38 419.42C172.198 417.154 172.549 414.876 173.404 412.77C174.259 410.663 175.595 408.786 177.305 407.287C179.015 405.789 181.052 404.712 183.253 404.141C185.454 403.57 187.757 403.522 189.98 404C191.32 403.512 192.477 402.624 193.294 401.455C194.112 400.287 194.551 398.896 194.551 397.47C194.551 396.044 194.112 394.653 193.294 393.485C192.477 392.317 191.32 391.428 189.98 390.94ZM184.44 390.94C185.536 390.94 186.607 391.265 187.518 391.874C188.429 392.482 189.139 393.348 189.558 394.36C189.978 395.372 190.087 396.486 189.874 397.561C189.66 398.636 189.132 399.623 188.357 400.397C187.583 401.172 186.596 401.7 185.521 401.914C184.446 402.127 183.332 402.018 182.32 401.598C181.308 401.179 180.442 400.469 179.834 399.558C179.225 398.647 178.9 397.576 178.9 396.48C178.9 395.011 179.484 393.602 180.523 392.563C181.562 391.524 182.971 390.94 184.44 390.94ZM207.02 443.06C207.2 448.954 209.205 454.647 212.759 459.352C216.312 464.058 221.239 467.545 226.858 469.331C232.477 471.118 238.513 471.116 244.131 469.326C249.75 467.536 254.674 464.047 258.225 459.339C261.775 454.631 263.777 448.938 263.954 443.044C264.131 437.15 262.474 431.346 259.212 426.434C255.949 421.522 251.243 417.744 245.742 415.62C240.241 413.497 234.216 413.134 228.5 414.58C228.551 413.637 228.409 412.694 228.083 411.808C227.757 410.922 227.254 410.112 226.605 409.427C225.955 408.741 225.173 408.196 224.306 407.823C223.438 407.45 222.504 407.257 221.56 407.257C220.616 407.257 219.682 407.45 218.815 407.823C217.947 408.196 217.165 408.741 216.516 409.427C215.866 410.112 215.363 410.922 215.037 411.808C214.711 412.694 214.569 413.637 214.62 414.58C214.62 418.447 213.084 422.155 210.35 424.89C207.615 427.624 203.907 429.16 200.04 429.16C198.7 429.648 197.543 430.537 196.726 431.705C195.908 432.873 195.469 434.264 195.469 435.69C195.469 437.116 195.908 438.507 196.726 439.675C197.543 440.844 198.7 441.732 200.04 442.22C202.321 442.801 204.666 443.097 207.02 443.1V443.06Z" fill="white"/>
<path d="M153.499 457V441.252H164.295V443.916H156.679V447.644H163.253V450.308H156.679V457H153.499ZM166.207 451.135C166.207 450.132 166.454 449.162 166.948 448.224C167.442 447.285 168.141 446.569 169.043 446.075C169.952 445.581 170.966 445.334 172.083 445.334C173.809 445.334 175.223 445.896 176.326 447.021C177.429 448.138 177.98 449.552 177.98 451.264C177.98 452.99 177.422 454.422 176.305 455.561C175.195 456.692 173.795 457.258 172.104 457.258C171.059 457.258 170.06 457.021 169.107 456.549C168.162 456.076 167.442 455.385 166.948 454.476C166.454 453.559 166.207 452.445 166.207 451.135ZM169.301 451.296C169.301 452.427 169.569 453.294 170.106 453.896C170.644 454.497 171.306 454.798 172.094 454.798C172.882 454.798 173.54 454.497 174.07 453.896C174.607 453.294 174.876 452.42 174.876 451.274C174.876 450.157 174.607 449.298 174.07 448.696C173.54 448.095 172.882 447.794 172.094 447.794C171.306 447.794 170.644 448.095 170.106 448.696C169.569 449.298 169.301 450.164 169.301 451.296ZM183.244 457H180.226V445.592H183.029V447.214C183.509 446.448 183.939 445.943 184.318 445.699C184.705 445.456 185.142 445.334 185.629 445.334C186.316 445.334 186.979 445.524 187.616 445.903L186.682 448.535C186.173 448.206 185.701 448.041 185.264 448.041C184.841 448.041 184.483 448.159 184.189 448.396C183.896 448.625 183.663 449.044 183.491 449.652C183.326 450.261 183.244 451.536 183.244 453.477V457ZM194.158 445.592V447.998H192.096V452.596C192.096 453.527 192.114 454.071 192.149 454.229C192.192 454.379 192.282 454.504 192.418 454.604C192.561 454.705 192.733 454.755 192.934 454.755C193.213 454.755 193.618 454.658 194.147 454.465L194.405 456.807C193.703 457.107 192.909 457.258 192.021 457.258C191.476 457.258 190.986 457.168 190.549 456.989C190.112 456.803 189.79 456.567 189.582 456.28C189.382 455.987 189.242 455.593 189.163 455.099C189.099 454.748 189.066 454.039 189.066 452.972V447.998H187.681V445.592H189.066V443.325L192.096 441.563V445.592H194.158ZM203.762 457V455.292C203.346 455.901 202.799 456.381 202.118 456.731C201.445 457.082 200.732 457.258 199.98 457.258C199.214 457.258 198.527 457.09 197.918 456.753C197.309 456.416 196.869 455.944 196.597 455.335C196.325 454.726 196.188 453.885 196.188 452.811V445.592H199.207V450.834C199.207 452.438 199.261 453.423 199.368 453.788C199.483 454.146 199.687 454.433 199.98 454.647C200.274 454.855 200.646 454.959 201.098 454.959C201.613 454.959 202.075 454.819 202.483 454.54C202.892 454.254 203.171 453.903 203.321 453.487C203.472 453.065 203.547 452.037 203.547 450.404V445.592H206.565V457H203.762Z" fill="white"/>
<path d="M220.608 457H217.59V451.178C217.59 449.946 217.525 449.151 217.396 448.793C217.268 448.428 217.056 448.145 216.763 447.944C216.476 447.744 216.129 447.644 215.721 447.644C215.198 447.644 214.729 447.787 214.313 448.073C213.898 448.36 213.612 448.739 213.454 449.212C213.304 449.685 213.229 450.558 213.229 451.833V457H210.21V445.592H213.014V447.268C214.009 445.979 215.262 445.334 216.773 445.334C217.439 445.334 218.048 445.456 218.6 445.699C219.151 445.936 219.566 446.24 219.846 446.612C220.132 446.985 220.329 447.407 220.437 447.88C220.551 448.353 220.608 449.029 220.608 449.91V457ZM230.287 453.369L233.295 453.874C232.908 454.977 232.296 455.818 231.458 456.398C230.627 456.971 229.585 457.258 228.332 457.258C226.348 457.258 224.88 456.61 223.928 455.313C223.176 454.275 222.8 452.965 222.8 451.382C222.8 449.491 223.294 448.012 224.282 446.945C225.271 445.871 226.52 445.334 228.031 445.334C229.729 445.334 231.068 445.896 232.049 447.021C233.03 448.138 233.499 449.853 233.456 452.166H225.894C225.915 453.061 226.159 453.759 226.624 454.261C227.09 454.755 227.67 455.002 228.364 455.002C228.837 455.002 229.234 454.873 229.557 454.615C229.879 454.357 230.122 453.942 230.287 453.369ZM230.459 450.318C230.438 449.445 230.212 448.782 229.782 448.331C229.353 447.873 228.83 447.644 228.214 447.644C227.555 447.644 227.011 447.883 226.581 448.363C226.151 448.843 225.94 449.495 225.947 450.318H230.459Z" fill="#FFD4D4"/>
</svg>
