<svg width="128" height="128" viewBox="0 0 128 128" fill="none" xmlns="http://www.w3.org/2000/svg">
<g clip-path="url(#clip0_1527_1706)">
<rect width="128" height="128" rx="20" fill="#FFD4D4"/>
<path d="M59.0001 31C60.8398 31.0026 62.6035 31.7347 63.9045 33.0356C65.2054 34.3365 65.9374 36.1002 65.9401 37.94V90.06C65.8447 91.8362 65.0719 93.5082 63.7809 94.7317C62.4898 95.9553 60.7788 96.6373 59.0001 96.6373C57.2213 96.6373 55.5103 95.9553 54.2192 94.7317C52.9282 93.5082 52.1554 91.8362 52.0601 90.06V37.94C52.0627 36.1002 52.7947 34.3365 54.0957 33.0356C55.3966 31.7347 57.1603 31.0026 59.0001 31Z" fill="#E8A2A2"/>
<path d="M67.9399 84.06V37.94C68.0353 36.1638 68.8081 34.4918 70.0991 33.2682C71.3902 32.0447 73.1012 31.3627 74.8799 31.3627C76.6587 31.3627 78.3697 32.0447 79.6608 33.2682C80.9518 34.4918 81.7246 36.1638 81.8199 37.94V90.06C81.7246 91.8362 80.9518 93.5082 79.6608 94.7317C78.3697 95.9553 76.6587 96.6373 74.8799 96.6373C73.1012 96.6373 71.3902 95.9553 70.0991 94.7317C68.8081 93.5082 68.0353 91.8362 67.9399 90.06V84.06Z" fill="#C56B6B"/>
<path d="M59.0001 61.0001H52.0601V67.9401C52.0094 68.8828 52.1514 69.8259 52.4773 70.7119C52.8032 71.598 53.3062 72.4083 53.9556 73.0936C54.605 73.7788 55.3873 74.3245 56.2545 74.6975C57.1218 75.0704 58.056 75.2627 59.0001 75.2627C59.9441 75.2627 60.8783 75.0704 61.7456 74.6975C62.6129 74.3245 63.3951 73.7788 64.0445 73.0936C64.6939 72.4083 65.1969 71.598 65.5228 70.7119C65.8487 69.8259 65.9907 68.8828 65.9401 67.9401V61.0001H59.0001ZM61.4801 34.9401C61.4495 29.442 59.8281 24.0704 56.8117 19.4736C53.7952 14.8768 49.5127 11.2514 44.4811 9.03503C39.4495 6.81868 33.8839 6.10614 28.4562 6.98344C23.0285 7.86073 17.9708 10.2903 13.8936 13.979C9.81642 17.6676 6.8941 22.4575 5.47941 27.7706C4.06473 33.0836 4.21816 38.6925 5.9212 43.9202C7.62424 49.1479 10.8041 53.7709 15.0768 57.2311C19.3496 60.6913 24.5325 62.8408 30.0001 63.4201C29.9494 64.3628 30.0914 65.3059 30.4173 66.1919C30.7432 67.078 31.2462 67.8883 31.8956 68.5736C32.545 69.2588 33.3273 69.8045 34.1945 70.1775C35.0618 70.5504 35.996 70.7427 36.9401 70.7427C37.8841 70.7427 38.8183 70.5504 39.6856 70.1775C40.5529 69.8045 41.3351 69.2588 41.9845 68.5736C42.6339 67.8883 43.1369 67.078 43.4628 66.1919C43.7887 65.3059 43.9307 64.3628 43.8801 63.4201C43.6982 61.1538 44.0489 58.8764 44.9041 56.7698C45.7592 54.6632 47.0952 52.7857 48.8053 51.2875C50.5154 49.7892 52.5521 48.7117 54.7529 48.1409C56.9536 47.5701 59.2574 47.5218 61.4801 48.0001C62.8198 47.5119 63.9769 46.6235 64.7945 45.4554C65.6121 44.2872 66.0507 42.8959 66.0507 41.4701C66.0507 40.0442 65.6121 38.6529 64.7945 37.4847C63.9769 36.3166 62.8198 35.4282 61.4801 34.9401ZM55.9401 34.9401C57.0358 34.9401 58.1069 35.265 59.0179 35.8737C59.929 36.4825 60.6391 37.3477 61.0584 38.36C61.4777 39.3723 61.5874 40.4862 61.3736 41.5609C61.1599 42.6355 60.6322 43.6226 59.8574 44.3974C59.0827 45.1722 58.0955 45.6998 57.0209 45.9136C55.9462 46.1274 54.8323 46.0177 53.82 45.5983C52.8077 45.179 51.9425 44.469 51.3337 43.5579C50.725 42.6469 50.4001 41.5758 50.4001 40.4801C50.4001 39.0108 50.9837 37.6016 52.0227 36.5627C53.0616 35.5237 54.4708 34.9401 55.9401 34.9401ZM78.5201 87.0601C78.7003 92.9539 80.7054 98.6465 84.2588 103.352C87.8122 108.058 92.7385 111.545 98.358 113.331C103.977 115.118 110.013 115.116 115.631 113.326C121.25 111.536 126.174 108.047 129.725 103.339C133.275 98.6313 135.277 92.9375 135.454 87.0435C135.631 81.1496 133.974 75.3461 130.712 70.434C127.449 65.5219 122.743 61.7435 117.242 59.6202C111.741 57.497 105.716 57.1335 100 58.5801C100.051 57.6373 99.9087 56.6942 99.5828 55.8082C99.2569 54.9221 98.7539 54.1118 98.1045 53.4266C97.4551 52.7413 96.6729 52.1956 95.8056 51.8226C94.9383 51.4497 94.0041 51.2574 93.0601 51.2574C92.116 51.2574 91.1818 51.4497 90.3145 51.8226C89.4473 52.1956 88.665 52.7413 88.0156 53.4266C87.3662 54.1118 86.8632 54.9221 86.5373 55.8082C86.2114 56.6942 86.0694 57.6373 86.1201 58.5801C86.1201 62.4469 84.584 66.1554 81.8497 68.8897C79.1154 71.624 75.4069 73.1601 71.5401 73.1601C70.2004 73.6482 69.0433 74.5366 68.2256 75.7047C67.408 76.8729 66.9695 78.2642 66.9695 79.6901C66.9695 81.1159 67.408 82.5072 68.2256 83.6754C69.0433 84.8435 70.2004 85.7319 71.5401 86.2201C73.8214 86.801 76.166 87.0966 78.5201 87.1001V87.0601Z" fill="white"/>
<path d="M24.999 101V85.252H35.7949V87.916H28.1787V91.6436H34.7529V94.3076H28.1787V101H24.999ZM37.707 95.1348C37.707 94.1322 37.9541 93.1618 38.4482 92.2236C38.9424 91.2855 39.6406 90.5693 40.543 90.0752C41.4525 89.5811 42.4658 89.334 43.583 89.334C45.3089 89.334 46.7233 89.8962 47.8262 91.0205C48.929 92.1377 49.4805 93.5521 49.4805 95.2637C49.4805 96.9896 48.9219 98.4219 47.8047 99.5605C46.6947 100.692 45.2946 101.258 43.6045 101.258C42.5589 101.258 41.5599 101.021 40.6074 100.549C39.6621 100.076 38.9424 99.3851 38.4482 98.4756C37.9541 97.5589 37.707 96.4453 37.707 95.1348ZM40.8008 95.2959C40.8008 96.4274 41.0693 97.2939 41.6064 97.8955C42.1436 98.4971 42.806 98.7979 43.5938 98.7979C44.3815 98.7979 45.0404 98.4971 45.5703 97.8955C46.1074 97.2939 46.376 96.4202 46.376 95.2744C46.376 94.1572 46.1074 93.2979 45.5703 92.6963C45.0404 92.0947 44.3815 91.7939 43.5938 91.7939C42.806 91.7939 42.1436 92.0947 41.6064 92.6963C41.0693 93.2979 40.8008 94.1644 40.8008 95.2959ZM54.7441 101H51.7256V89.5918H54.5293V91.2139C55.0091 90.4476 55.4388 89.9427 55.8184 89.6992C56.2051 89.4557 56.6419 89.334 57.1289 89.334C57.8164 89.334 58.4788 89.5238 59.1162 89.9033L58.1816 92.5352C57.6732 92.2057 57.2005 92.041 56.7637 92.041C56.3411 92.041 55.9831 92.1592 55.6895 92.3955C55.3958 92.6247 55.1631 93.0436 54.9912 93.6523C54.8265 94.2611 54.7441 95.5358 54.7441 97.4766V101ZM65.6582 89.5918V91.998H63.5957V96.5957C63.5957 97.5267 63.6136 98.071 63.6494 98.2285C63.6924 98.3789 63.7819 98.5042 63.918 98.6045C64.0612 98.7048 64.2331 98.7549 64.4336 98.7549C64.7129 98.7549 65.1175 98.6582 65.6475 98.4648L65.9053 100.807C65.2035 101.107 64.4085 101.258 63.5205 101.258C62.9762 101.258 62.4857 101.168 62.0488 100.989C61.612 100.803 61.2897 100.567 61.082 100.28C60.8815 99.9867 60.7419 99.5928 60.6631 99.0986C60.5986 98.7477 60.5664 98.0387 60.5664 96.9717V91.998H59.1807V89.5918H60.5664V87.3252L63.5957 85.5635V89.5918H65.6582ZM75.2617 101V99.292C74.8464 99.9007 74.2985 100.381 73.6182 100.731C72.945 101.082 72.2324 101.258 71.4805 101.258C70.7142 101.258 70.0267 101.09 69.418 100.753C68.8092 100.416 68.3688 99.9437 68.0967 99.335C67.8245 98.7262 67.6885 97.8848 67.6885 96.8105V89.5918H70.707V94.834C70.707 96.4382 70.7607 97.4229 70.8682 97.7881C70.9827 98.1462 71.1868 98.4326 71.4805 98.6475C71.7741 98.8551 72.1465 98.959 72.5977 98.959C73.1133 98.959 73.5752 98.8193 73.9834 98.54C74.3916 98.2536 74.6709 97.9027 74.8213 97.4873C74.9717 97.0648 75.0469 96.0371 75.0469 94.4043V89.5918H78.0654V101H75.2617Z" fill="white"/>
<path d="M92.1084 101H89.0898V95.1777C89.0898 93.946 89.0254 93.151 88.8965 92.793C88.7676 92.4277 88.5563 92.1449 88.2627 91.9443C87.9762 91.7438 87.6289 91.6436 87.2207 91.6436C86.6979 91.6436 86.2288 91.7868 85.8135 92.0732C85.3981 92.3597 85.1117 92.7393 84.9541 93.2119C84.8037 93.6846 84.7285 94.5583 84.7285 95.833V101H81.71V89.5918H84.5137V91.2676C85.5091 89.9785 86.7624 89.334 88.2734 89.334C88.9395 89.334 89.5482 89.4557 90.0996 89.6992C90.651 89.9355 91.0664 90.2399 91.3457 90.6123C91.6322 90.9847 91.8291 91.4072 91.9365 91.8799C92.0511 92.3525 92.1084 93.0293 92.1084 93.9102V101ZM101.787 97.3691L104.795 97.874C104.408 98.9769 103.796 99.8184 102.958 100.398C102.127 100.971 101.085 101.258 99.832 101.258C97.8483 101.258 96.3802 100.61 95.4277 99.3135C94.6758 98.2751 94.2998 96.9645 94.2998 95.3818C94.2998 93.4912 94.7939 92.0124 95.7822 90.9453C96.7705 89.8711 98.0202 89.334 99.5312 89.334C101.229 89.334 102.568 89.8962 103.549 91.0205C104.53 92.1377 104.999 93.8529 104.956 96.166H97.3936C97.415 97.0612 97.6585 97.7594 98.124 98.2607C98.5895 98.7549 99.1696 99.002 99.8643 99.002C100.337 99.002 100.734 98.873 101.057 98.6152C101.379 98.3574 101.622 97.9421 101.787 97.3691ZM101.959 94.3184C101.938 93.4447 101.712 92.7822 101.282 92.3311C100.853 91.8727 100.33 91.6436 99.7139 91.6436C99.055 91.6436 98.5107 91.8835 98.0811 92.3633C97.6514 92.8431 97.4401 93.4948 97.4473 94.3184H101.959Z" fill="#FFD4D4"/>
</g>
<defs>
<clipPath id="clip0_1527_1706">
<rect width="128" height="128" rx="20" fill="white"/>
</clipPath>
</defs>
</svg>
