<svg xmlns="http://www.w3.org/2000/svg" width="20" height="19.003" viewBox="0 0 20 19.003">
  <g id="logo_line" transform="translate(-3.317 -4)">
    <path id="パス_3817" data-name="パス 3817" d="M73.076,72.095c0-4.464-4.486-8.095-10-8.095s-10,3.631-10,8.095c0,4,3.557,7.352,8.362,7.986.325.07.768.214.881.492a2.045,2.045,0,0,1,.033.9s-.117.7-.15.855c-.043.252-.2.986.866.538a32.28,32.28,0,0,0,7.865-5.786h0a7.193,7.193,0,0,0,2.143-4.98" transform="translate(-49.761 -60)" fill="#fff"/>
    <path id="パス_3818" data-name="パス 3818" d="M202.14,132.365a.193.193,0,0,0,.193-.193v-.714a.193.193,0,0,0-.193-.193h-1.921v-.747h1.921a.193.193,0,0,0,.193-.193v-.713a.193.193,0,0,0-.193-.193h-1.921v-.747h1.921a.193.193,0,0,0,.193-.193v-.713a.193.193,0,0,0-.193-.193h-2.827a.193.193,0,0,0-.193.193h0v4.382h0a.193.193,0,0,0,.193.193h2.827Z" transform="translate(-182.232 -117.815)" fill="#4cc764"/>
    <path id="パス_3819" data-name="パス 3819" d="M91.135,132.36a.193.193,0,0,0,.193-.193v-.714a.193.193,0,0,0-.193-.193h-1.92v-3.484a.193.193,0,0,0-.193-.193H88.31a.193.193,0,0,0-.193.193v4.387h0a.193.193,0,0,0,.193.193h2.827Z" transform="translate(-81.712 -117.811)" fill="#4cc764"/>
    <path id="パス_3820" data-name="パス 3820" d="M129.522,127.585h-.713a.193.193,0,0,0-.193.193v4.391a.193.193,0,0,0,.193.193h.713a.193.193,0,0,0,.193-.193v-4.391a.193.193,0,0,0-.193-.193" transform="translate(-118.388 -117.81)" fill="#4cc764"/>
    <path id="パス_3821" data-name="パス 3821" d="M151.523,127.585h-.713a.193.193,0,0,0-.193.193v2.607l-2.008-2.713-.015-.019h0l-.012-.012h0l-.01-.009h-.8a.193.193,0,0,0-.193.193v4.391a.193.193,0,0,0,.193.193h.714a.193.193,0,0,0,.193-.193v-2.607l2.011,2.716a.2.2,0,0,0,.049.048h.043a.2.2,0,0,0,.051,0h.71a.193.193,0,0,0,.193-.193v-4.391a.193.193,0,0,0-.193-.193" transform="translate(-135.523 -117.81)" fill="#4cc764"/>
  </g>
</svg>
