<svg width="20" height="22" viewBox="0 0 20 22" fill="none" xmlns="http://www.w3.org/2000/svg">
<path d="M14.4375 0C14.3523 0 6.1875 0 6.1875 0C4.73274 0 3.43751 1.33445 3.43751 2.75002L2.64276 2.76857C1.18869 2.76857 0 4.08443 0 5.5V19.25C0 20.6656 1.29526 22 2.75002 22H13.0625C14.5172 22 15.8125 20.6656 15.8125 19.25H16.5C17.9548 19.25 19.25 17.9156 19.25 16.5V5.51651L14.4375 0ZM13.0625 20.625H2.75002C2.02814 20.625 1.37502 19.9506 1.37502 19.25V5.5C1.37502 4.79945 1.96284 4.14769 2.68472 4.14769L3.43751 4.12501V16.5C3.43751 17.9156 4.73274 19.25 6.1875 19.25H14.4375C14.4375 19.9506 13.7844 20.625 13.0625 20.625ZM17.875 16.5C17.875 17.2006 17.2219 17.875 16.5 17.875H6.1875C5.46562 17.875 4.8125 17.2006 4.8125 16.5V2.75002C4.8125 2.04947 5.46562 1.37502 6.1875 1.37502H13.0625C13.0515 2.95834 13.0625 4.14221 13.0625 4.14221C13.0625 5.57084 14.3481 6.87502 15.8125 6.87502C15.8125 6.87502 16.5427 6.87502 17.875 6.87502V16.5ZM15.8125 5.5C15.0803 5.5 14.4375 4.1697 14.4375 3.45607C14.4375 3.45607 14.4375 2.73281 14.4375 1.39632V1.39493L17.875 5.5H15.8125ZM14.4375 9.6374H8.25002C7.87052 9.6374 7.56252 9.94471 7.56252 10.3242C7.56252 10.7037 7.87052 11.011 8.25002 11.011H14.4375C14.817 11.011 15.125 10.7037 15.125 10.3242C15.125 9.94471 14.817 9.6374 14.4375 9.6374ZM14.4375 13.0715H8.25002C7.87052 13.0715 7.56252 13.3788 7.56252 13.7582C7.56252 14.1378 7.87052 14.4451 8.25002 14.4451H14.4375C14.817 14.4451 15.125 14.1378 15.125 13.7582C15.125 13.3788 14.817 13.0715 14.4375 13.0715Z" fill="black"/>
</svg>
