<svg width="24" height="24" viewBox="0 0 24 24" fill="none" xmlns="http://www.w3.org/2000/svg">
<g clip-path="url(#clip0_1242_456)">
<path d="M21.2528 10.6221V10.6115L18.3711 13.4932V21.0183C18.3711 21.0542 18.3314 21.094 18.2955 21.094H10.4412L2.94141 21.0868L2.92491 21.0795C2.91061 21.0758 2.89612 21.0614 2.88169 21.0183V5.68012C2.88169 5.64042 2.91778 5.60451 2.9573 5.60451H10.5831L12.2692 3.91847L13.4648 2.73028H13.4573L13.4648 2.72278H2.95734C1.32572 2.72278 0 4.04831 0 5.68012V21.0183C0 21.7313 0.259453 22.4231 0.720516 22.9454C0.756609 22.9888 0.800344 23.0246 0.838969 23.0654C0.860578 23.0881 0.882562 23.1103 0.904312 23.1315C0.942234 23.1684 0.975 23.2103 1.01564 23.2443C1.5525 23.7162 2.24062 23.9757 2.9573 23.9757H18.2955C19.9272 23.9757 21.2528 22.65 21.2528 21.0183V14.926L21.2582 10.6168L21.2528 10.6221Z" fill="black"/>
<path d="M23.7052 3.96896L20.0557 0.319277C19.8653 0.129058 19.615 0.0241048 19.3513 0.0242923C19.1014 0.0241048 18.8681 0.11987 18.6945 0.293449L7.18358 11.8044L5.25087 17.9944C5.18276 18.2122 5.24375 18.4498 5.40908 18.6153C5.52734 18.7338 5.68761 18.8016 5.84923 18.8016C5.9104 18.8016 5.9712 18.7922 6.03036 18.7739L12.2204 16.8411L23.7314 5.33035C24.0996 4.96215 24.0877 4.35146 23.7052 3.96896ZM12.6201 14.5578C12.5513 14.3619 12.4453 14.1802 12.308 14.0259L20.2124 6.12156L20.6367 6.54578L15.0408 12.1417L12.6201 14.5578ZM11.5565 15.626L11.5122 15.6704L7.80631 16.8274L7.1975 16.2184L8.35451 12.5125L8.39886 12.4684L8.90876 12.4417C9.0439 12.4345 9.17136 12.4832 9.26712 12.579C9.3627 12.6746 9.4114 12.8019 9.40428 12.9372C9.38084 13.3898 9.55081 13.833 9.87139 14.1532C10.1918 14.4738 10.6352 14.6439 11.0876 14.6205C11.2227 14.6132 11.35 14.6624 11.4462 14.7586C11.5415 14.8538 11.5902 14.9808 11.5833 15.116L11.5565 15.626ZM9.46583 11.4012L17.4789 3.38795L17.9033 3.8124L9.99903 11.7165C9.86534 11.5981 9.70953 11.5083 9.5442 11.44C9.51744 11.4278 9.49325 11.4126 9.46583 11.4012ZM11.0286 13.4919C10.8933 13.4988 10.766 13.4501 10.6703 13.3542C10.5747 13.2586 10.526 13.1313 10.5329 12.996C10.5426 12.8096 10.5192 12.6232 10.4646 12.4449L18.5004 4.40926L19.6152 5.52418L11.5794 13.5598C11.4014 13.5053 11.2148 13.4818 11.0286 13.4919ZM18.0762 2.79104L19.3623 1.50475L22.52 4.66257L21.2338 5.94868L18.0762 2.79104Z" fill="black"/>
</g>
<defs>
<clipPath id="clip0_1242_456">
<rect width="24" height="24" fill="white"/>
</clipPath>
</defs>
</svg>
