<svg width="24" height="24" viewBox="0 0 24 24" fill="none" xmlns="http://www.w3.org/2000/svg">
<g clip-path="url(#clip0_1243_470)">
<path d="M16.6599 7.84822V20.6365C16.6599 21.2322 16.1693 21.7227 15.5737 21.7227H7.14744C6.55182 21.7227 6.06131 21.2322 6.06131 20.6365V7.84822H16.6599ZM13.9095 9.2672V20.2687H14.5401V9.2672H13.9095ZM11.054 9.2672V20.2687H11.6847V9.2672H11.054ZM8.19854 9.2672V20.2687H8.8292V9.2672H8.19854ZM8.89927 4.88764V3.97669C8.89927 3.39859 9.35474 2.94312 9.93285 2.94312H12.8058C13.3839 2.94312 13.8394 3.39859 13.8394 3.97669V4.88764H17.0102C17.6058 4.88764 18.0963 5.37815 18.0963 5.97377V6.72706H4.64233V5.95625C4.64233 5.36063 5.13284 4.87012 5.72847 4.87012H8.89927V4.88764ZM9.93285 3.64385C9.75766 3.64385 9.61752 3.78399 9.61752 3.95917V4.87012H13.1387V3.95917C13.1387 3.78399 12.9985 3.64385 12.8234 3.64385H9.93285Z" fill="black"/>
</g>
<defs>
<clipPath id="clip0_1243_470">
<rect width="17.1679" height="24" fill="white" transform="translate(3.41602)"/>
</clipPath>
</defs>
</svg>
