<svg width="64" height="64" viewBox="0 0 64 64" fill="none" xmlns="http://www.w3.org/2000/svg">
<g clip-path="url(#clip0_1142_460)">
<path d="M64 32C64 14.3269 49.6731 0 32 0C14.3269 0 0 14.3269 0 32C0 49.6731 14.3269 64 32 64C49.6731 64 64 49.6731 64 32Z" fill="#8DC8FF"/>
<path d="M32 37.263C25.375 37.263 12 40.638 12 47.263V52.263H52V47.263C52 40.639 38.625 37.263 32 37.263Z" fill="#0078FE"/>
<path d="M31.9529 33.907C38.075 33.907 43.0379 28.9441 43.0379 22.822C43.0379 16.6999 38.075 11.737 31.9529 11.737C25.8308 11.737 20.8679 16.6999 20.8679 22.822C20.8679 28.9441 25.8308 33.907 31.9529 33.907Z" fill="#0078FE"/>
</g>
<defs>
<clipPath id="clip0_1142_460">
<rect width="64" height="64" fill="white"/>
</clipPath>
</defs>
</svg>
