<svg width="24" height="24" viewBox="0 0 24 24" fill="none" xmlns="http://www.w3.org/2000/svg">
<g clip-path="url(#clip0_1234_451)">
<path d="M19.2857 8.3572C19.2857 6.81795 18.0392 5.57148 16.5 5.57148C14.9608 5.57148 13.7143 6.81795 13.7143 8.3572C13.7143 9.89644 14.9608 11.1429 16.5 11.1429C18.0392 11.1429 19.2857 9.89644 19.2857 8.3572ZM20.5714 8.3572C20.5714 10.6065 18.7493 12.4286 16.5 12.4286C14.2507 12.4286 12.4286 10.6065 12.4286 8.3572C12.4286 6.10787 14.2507 4.28577 16.5 4.28577C18.7493 4.28577 20.5714 6.10787 20.5714 8.3572ZM10.9286 17.6021C10.9286 18.4301 10.9272 18.4286 11.4202 18.4286H22.0084C22.5013 18.4286 22.5 18.4301 22.5 17.6021C22.5 15.6709 19.8592 14.5715 16.7143 14.5715C13.5694 14.5715 10.9286 15.6709 10.9286 17.6021ZM16.7143 13.2858C20.5022 13.2858 23.7857 14.6528 23.7857 17.6021C23.7857 19.1159 23.2382 19.7143 22.0084 19.7143H11.4202C10.1904 19.7143 9.64286 19.1159 9.64286 17.6021C9.64286 14.6528 12.9264 13.2858 16.7143 13.2858ZM4.92857 6.00005C5.28361 6.00005 5.57143 6.28787 5.57143 6.64291V10.2858H9.21429C9.56933 10.2858 9.85714 10.5736 9.85714 10.9286C9.85714 11.2837 9.56933 11.5715 9.21429 11.5715H5.57143V15.2143C5.57143 15.5694 5.28361 15.8572 4.92857 15.8572C4.57353 15.8572 4.28571 15.5694 4.28571 15.2143V11.5715H0.642857C0.287817 11.5715 0 11.2837 0 10.9286C0 10.5736 0.287817 10.2858 0.642857 10.2858H4.28571V6.64291C4.28571 6.28787 4.57353 6.00005 4.92857 6.00005Z" fill="black"/>
</g>
<defs>
<clipPath id="clip0_1234_451">
<rect width="24" height="24" fill="white"/>
</clipPath>
</defs>
</svg>
