<svg width="24" height="24" viewBox="0 0 24 24" fill="none" xmlns="http://www.w3.org/2000/svg">
<path d="M20.7843 2.39218C20.7545 2.39312 20.7248 2.39573 20.6953 2.39999H16C15.8939 2.39849 15.7887 2.41808 15.6903 2.45761C15.5919 2.49714 15.5024 2.55583 15.4269 2.63026C15.3514 2.7047 15.2915 2.7934 15.2505 2.8912C15.2096 2.98901 15.1886 3.09397 15.1886 3.19999C15.1886 3.30601 15.2096 3.41097 15.2505 3.50878C15.2915 3.60659 15.3514 3.69528 15.4269 3.76972C15.5024 3.84416 15.5919 3.90284 15.6903 3.94237C15.7887 3.98191 15.8939 4.00149 16 3.99999H18.8687L10.6343 12.2344C10.5575 12.3081 10.4962 12.3964 10.454 12.4941C10.4118 12.5918 10.3895 12.6969 10.3884 12.8034C10.3873 12.9098 10.4075 13.0154 10.4477 13.1139C10.4879 13.2125 10.5474 13.302 10.6227 13.3772C10.698 13.4525 10.7875 13.512 10.886 13.5522C10.9846 13.5925 11.0901 13.6126 11.1966 13.6115C11.303 13.6105 11.4082 13.5882 11.5059 13.5459C11.6036 13.5037 11.6919 13.4424 11.7656 13.3656L20 5.13124V7.99999C19.9985 8.106 20.018 8.21125 20.0576 8.30963C20.0971 8.408 20.1558 8.49754 20.2302 8.57303C20.3047 8.64853 20.3934 8.70848 20.4912 8.7494C20.589 8.79031 20.6939 8.81139 20.8 8.81139C20.906 8.81139 21.0109 8.79031 21.1087 8.7494C21.2065 8.70848 21.2952 8.64853 21.3697 8.57303C21.4441 8.49754 21.5028 8.408 21.5423 8.30963C21.5819 8.21125 21.6015 8.106 21.6 7.99999V3.30155C21.6159 3.18637 21.6065 3.06911 21.5725 2.95791C21.5385 2.84672 21.4807 2.74428 21.403 2.65772C21.3254 2.57116 21.2298 2.50256 21.123 2.4567C21.0161 2.41084 20.9006 2.38882 20.7843 2.39218ZM4.79995 5.59999C3.9255 5.59999 3.19995 6.32554 3.19995 7.19999V19.2C3.19995 20.0744 3.9255 20.8 4.79995 20.8H16.8C17.6744 20.8 18.4 20.0744 18.4 19.2V11.2V9.13749L16.8 10.7375V12.8V19.2H4.79995V7.19999H11.2H12.8H13.2625L14.8625 5.59999H12.8H11.2H4.79995Z" fill="black"/>
</svg>
