<svg width="24" height="24" viewBox="0 0 24 24" fill="none" xmlns="http://www.w3.org/2000/svg">
<path d="M19.284 21.0828H4.71602C4.23863 21.0828 3.78079 20.8932 3.44322 20.5556C3.10566 20.2181 2.91602 19.7602 2.91602 19.2828V7.20002C2.91602 6.72263 3.10566 6.2648 3.44322 5.92723C3.78079 5.58967 4.23863 5.40002 4.71602 5.40002H12C12.1591 5.40002 12.3118 5.46324 12.4243 5.57576C12.5368 5.68828 12.6 5.84089 12.6 6.00002C12.6 6.15915 12.5368 6.31177 12.4243 6.42429C12.3118 6.53681 12.1591 6.60002 12 6.60002H4.71602C4.55689 6.60002 4.40427 6.66324 4.29175 6.77576C4.17923 6.88828 4.11602 7.04089 4.11602 7.20002V19.284C4.11602 19.4432 4.17923 19.5958 4.29175 19.7083C4.40427 19.8208 4.55689 19.884 4.71602 19.884H19.284C19.4431 19.884 19.5958 19.8208 19.7083 19.7083C19.8208 19.5958 19.884 19.4432 19.884 19.284V18C19.884 17.8409 19.9472 17.6883 20.0597 17.5758C20.1723 17.4632 20.3249 17.4 20.484 17.4C20.6431 17.4 20.7958 17.4632 20.9083 17.5758C21.0208 17.6883 21.084 17.8409 21.084 18V19.284C21.0837 19.7612 20.8939 20.2187 20.5564 20.556C20.2189 20.8933 19.7612 21.0828 19.284 21.0828Z" fill="black"/>
<path d="M17.5764 18.6C17.4949 18.6001 17.4142 18.5835 17.3393 18.5513C17.2645 18.5191 17.1969 18.472 17.1408 18.4128L14.2956 15.4128C14.19 15.3013 14.1312 15.1536 14.1312 15V3.51724C14.1312 3.35811 14.1944 3.20549 14.307 3.09297C14.4195 2.98045 14.5721 2.91724 14.7312 2.91724H20.4204C20.5796 2.91724 20.7322 2.98045 20.8447 3.09297C20.9572 3.20549 21.0204 3.35811 21.0204 3.51724V15C21.0205 15.1536 20.9616 15.3013 20.856 15.4128L18.0108 18.4128C17.9549 18.4718 17.8875 18.5189 17.8129 18.5511C17.7382 18.5832 17.6577 18.5999 17.5764 18.6ZM15.3312 14.76L17.5764 17.1264L19.8204 14.76V4.11724H15.3312V14.76Z" fill="black"/>
<path d="M20.4204 6.60002H14.7312C14.5721 6.60002 14.4195 6.53681 14.307 6.42429C14.1944 6.31177 14.1312 6.15915 14.1312 6.00002C14.1312 5.84089 14.1944 5.68828 14.307 5.57576C14.4195 5.46324 14.5721 5.40002 14.7312 5.40002H20.4204C20.5796 5.40002 20.7322 5.46324 20.8447 5.57576C20.9572 5.68828 21.0204 5.84089 21.0204 6.00002C21.0204 6.15915 20.9572 6.31177 20.8447 6.42429C20.7322 6.53681 20.5796 6.60002 20.4204 6.60002Z" fill="black"/>
<path d="M12 11.04H7.04043C6.8813 11.04 6.72869 10.9768 6.61617 10.8642C6.50364 10.7517 6.44043 10.5991 6.44043 10.44C6.44043 10.2808 6.50364 10.1282 6.61617 10.0157C6.72869 9.90318 6.8813 9.83997 7.04043 9.83997H12C12.1592 9.83997 12.3118 9.90318 12.4243 10.0157C12.5368 10.1282 12.6 10.2808 12.6 10.44C12.6 10.5991 12.5368 10.7517 12.4243 10.8642C12.3118 10.9768 12.1592 11.04 12 11.04Z" fill="black"/>
<path d="M12 14.04H7.04043C6.8813 14.04 6.72869 13.9768 6.61617 13.8642C6.50364 13.7517 6.44043 13.5991 6.44043 13.44C6.44043 13.2808 6.50364 13.1282 6.61617 13.0157C6.72869 12.9032 6.8813 12.84 7.04043 12.84H12C12.1592 12.84 12.3118 12.9032 12.4243 13.0157C12.5368 13.1282 12.6 13.2808 12.6 13.44C12.6 13.5991 12.5368 13.7517 12.4243 13.8642C12.3118 13.9768 12.1592 14.04 12 14.04Z" fill="black"/>
<path d="M12 17.04H7.04043C6.8813 17.04 6.72869 16.9768 6.61617 16.8642C6.50364 16.7517 6.44043 16.5991 6.44043 16.44C6.44043 16.2808 6.50364 16.1282 6.61617 16.0157C6.72869 15.9032 6.8813 15.84 7.04043 15.84H12C12.1592 15.84 12.3118 15.9032 12.4243 16.0157C12.5368 16.1282 12.6 16.2808 12.6 16.44C12.6 16.5991 12.5368 16.7517 12.4243 16.8642C12.3118 16.9768 12.1592 17.04 12 17.04Z" fill="black"/>
</svg>
