<svg xmlns="http://www.w3.org/2000/svg" width="20" height="26" viewBox="0 0 20 26">
  <g id="icon_apple_set" transform="translate(-16 -15.408)">
    <rect id="長方形_4852" data-name="長方形 4852" width="20" height="26" transform="translate(16 15.408)" fill="#fff" opacity="0"/>
    <path id="Union_1" data-name="Union 1" d="M2.32,18.863C.418,16.18-1.024,11.3.933,8.005A5.386,5.386,0,0,1,5.5,5.3c1.44-.026,2.773.928,3.643.928s2.418-1.114,4.237-1.009a5.252,5.252,0,0,1,4.05,2.149,4.915,4.915,0,0,0-2.391,4.117A4.84,4.84,0,0,0,18,15.864a11.771,11.771,0,0,1-1.522,3.051c-.924,1.329-1.875,2.628-3.4,2.657-1.469.026-1.958-.85-3.643-.85s-2.228.822-3.614.876H5.748C4.319,21.6,3.228,20.165,2.32,18.863ZM8.952,4.978a4.485,4.485,0,0,1,1.172-3.326A4.975,4.975,0,0,1,13.394,0a4.777,4.777,0,0,1-1.145,3.461A4.254,4.254,0,0,1,9.2,4.988C9.119,4.988,9.035,4.985,8.952,4.978Z" transform="translate(17 17.2)"/>
  </g>
</svg>
