<svg width="24" height="24" viewBox="0 0 24 24" fill="none" xmlns="http://www.w3.org/2000/svg">
<path d="M21.543 7.10406C21.5576 7.31564 21.5576 7.52722 21.5576 7.74075C21.5576 14.247 16.6045 21.7507 7.54759 21.7507V21.7468C4.87215 21.7507 2.25229 20.9844 0 19.5394C0.389031 19.5862 0.780012 19.6096 1.17197 19.6106C3.38915 19.6125 5.54296 18.8686 7.28726 17.4987C5.18026 17.4587 3.3326 16.0849 2.68714 14.0793C3.42523 14.2217 4.18574 14.1924 4.91018 13.9945C2.61304 13.5304 0.96039 11.5121 0.96039 9.16817C0.96039 9.14672 0.96039 9.12624 0.96039 9.10577C1.64485 9.487 2.41121 9.69858 3.19512 9.72198C1.03157 8.27603 0.364656 5.39779 1.67118 3.14745C4.17112 6.22362 7.8596 8.0937 11.8191 8.29163C11.4223 6.58146 11.9644 4.78938 13.2436 3.58718C15.2268 1.72295 18.3459 1.81851 20.2101 3.80071C21.3129 3.58328 22.3698 3.17865 23.337 2.60534C22.9694 3.74514 22.2001 4.71333 21.1725 5.32856C22.1484 5.21351 23.102 4.9522 24 4.55342C23.3389 5.54404 22.5063 6.40693 21.543 7.10406Z" fill="white"/>
</svg>
