<svg width="24" height="24" viewBox="0 0 24 24" fill="none" xmlns="http://www.w3.org/2000/svg">
<path d="M21.5808 18.6318C21.2218 19.4613 20.7967 20.2249 20.3043 20.927C19.633 21.884 19.0834 22.5465 18.6598 22.9144C18.0032 23.5182 17.2997 23.8275 16.5464 23.845C16.0056 23.845 15.3534 23.6911 14.5942 23.379C13.8325 23.0683 13.1325 22.9144 12.4925 22.9144C11.8212 22.9144 11.1013 23.0683 10.3312 23.379C9.56002 23.6911 8.93874 23.8538 8.46373 23.87C7.74132 23.9007 7.02125 23.5827 6.30251 22.9144C5.84376 22.5142 5.26997 21.8283 4.58259 20.8566C3.84508 19.819 3.23875 18.6157 2.76374 17.2438C2.25502 15.7621 2 14.3272 2 12.9381C2 11.3469 2.34384 9.97446 3.03254 8.82438C3.57379 7.90059 4.29386 7.17188 5.19508 6.63692C6.09629 6.10197 7.07006 5.82936 8.11872 5.81192C8.69251 5.81192 9.44497 5.98941 10.38 6.33823C11.3125 6.68822 11.9112 6.86571 12.1737 6.86571C12.3699 6.86571 13.035 6.65817 14.1625 6.24443C15.2288 5.86072 16.1287 5.70185 16.8659 5.76443C18.8636 5.92565 20.3644 6.71313 21.3625 8.13186C19.5758 9.21438 18.6921 10.7306 18.7097 12.6756C18.7258 14.1906 19.2754 15.4514 20.3556 16.4524C20.8451 16.917 21.3918 17.2761 22 17.5311C21.8681 17.9136 21.7289 18.28 21.5808 18.6318ZM16.9993 0.603066C16.9993 1.79053 16.5654 2.89927 15.7007 3.9255C14.6572 5.1455 13.395 5.85046 12.0262 5.73922C12.0088 5.59676 11.9987 5.44683 11.9987 5.28927C11.9987 4.14931 12.4949 2.92931 13.3762 1.93181C13.8162 1.42675 14.3758 1.0068 15.0544 0.671803C15.7315 0.341802 16.372 0.159304 16.9744 0.128052C16.9919 0.286798 16.9993 0.445554 16.9993 0.60305V0.603066Z" fill="white"/>
</svg>

