<svg width="20" height="23" viewBox="0 0 20 23" fill="none" xmlns="http://www.w3.org/2000/svg">
<path d="M15.4625 22.6876H3.72917C3.1457 22.6876 2.58612 22.4558 2.17354 22.0432C1.76096 21.6306 1.52917 21.0711 1.52917 20.4876V6.55426C1.52917 6.35976 1.60644 6.17324 1.74396 6.03571C1.88149 5.89818 2.06802 5.82092 2.26251 5.82092C2.457 5.82092 2.64353 5.89818 2.78105 6.03571C2.91858 6.17324 2.99584 6.35976 2.99584 6.55426V20.4876C2.99584 20.6821 3.0731 20.8686 3.21063 21.0061C3.34816 21.1437 3.53468 21.2209 3.72917 21.2209H15.4625C15.657 21.2209 15.8435 21.1437 15.9811 21.0061C16.1186 20.8686 16.1958 20.6821 16.1958 20.4876V6.55426C16.1958 6.35976 16.2731 6.17324 16.4106 6.03571C16.5482 5.89818 16.7347 5.82092 16.9292 5.82092C17.1237 5.82092 17.3102 5.89818 17.4477 6.03571C17.5852 6.17324 17.6625 6.35976 17.6625 6.55426V20.4876C17.6625 21.0711 17.4307 21.6306 17.0181 22.0432C16.6056 22.4558 16.046 22.6876 15.4625 22.6876Z" fill="#101820"/>
<path d="M18.3958 5.08752H0.795833C0.601341 5.08752 0.414815 5.01025 0.277288 4.87273C0.139762 4.7352 0.0625 4.54868 0.0625 4.35418C0.0625 4.15969 0.139762 3.97316 0.277288 3.83564C0.414815 3.69811 0.601341 3.62085 0.795833 3.62085H18.3958C18.5903 3.62085 18.7769 3.69811 18.9144 3.83564C19.0519 3.97316 19.1292 4.15969 19.1292 4.35418C19.1292 4.54868 19.0519 4.7352 18.9144 4.87273C18.7769 5.01025 18.5903 5.08752 18.3958 5.08752Z" fill="#101820"/>
<path d="M12.5292 5.0875C12.3347 5.0875 12.1482 5.01024 12.0107 4.87271C11.8731 4.73518 11.7959 4.54866 11.7959 4.35417V2.15417H7.39587V4.35417C7.39587 4.54866 7.3186 4.73518 7.18108 4.87271C7.04355 5.01024 6.85702 5.0875 6.66253 5.0875C6.46804 5.0875 6.28151 5.01024 6.14399 4.87271C6.00646 4.73518 5.9292 4.54866 5.9292 4.35417V1.42083C5.9292 1.22634 6.00646 1.03982 6.14399 0.902288C6.28151 0.764762 6.46804 0.6875 6.66253 0.6875H12.5292C12.7237 0.6875 12.9102 0.764762 13.0477 0.902288C13.1853 1.03982 13.2625 1.22634 13.2625 1.42083V4.35417C13.2625 4.54866 13.1853 4.73518 13.0477 4.87271C12.9102 5.01024 12.7237 5.0875 12.5292 5.0875Z" fill="#101820"/>
<path d="M9.59588 19.0208C9.40139 19.0208 9.21486 18.9435 9.07734 18.806C8.93981 18.6685 8.86255 18.482 8.86255 18.2875V8.02081C8.86255 7.82632 8.93981 7.63979 9.07734 7.50226C9.21486 7.36474 9.40139 7.28748 9.59588 7.28748C9.79037 7.28748 9.9769 7.36474 10.1144 7.50226C10.252 7.63979 10.3292 7.82632 10.3292 8.02081V18.2875C10.3292 18.482 10.252 18.6685 10.1144 18.806C9.9769 18.9435 9.79037 19.0208 9.59588 19.0208Z" fill="#101820"/>
<path d="M13.2625 17.5542C13.068 17.5542 12.8815 17.4769 12.744 17.3394C12.6064 17.2018 12.5292 17.0153 12.5292 16.8208V9.48748C12.5292 9.29299 12.6064 9.10647 12.744 8.96894C12.8815 8.83141 13.068 8.75415 13.2625 8.75415C13.457 8.75415 13.6435 8.83141 13.7811 8.96894C13.9186 9.10647 13.9958 9.29299 13.9958 9.48748V16.8208C13.9958 17.0153 13.9186 17.2018 13.7811 17.3394C13.6435 17.4769 13.457 17.5542 13.2625 17.5542Z" fill="#101820"/>
<path d="M5.92926 17.5542C5.73476 17.5542 5.54824 17.4769 5.41071 17.3394C5.27318 17.2018 5.19592 17.0153 5.19592 16.8208V9.48748C5.19592 9.29299 5.27318 9.10647 5.41071 8.96894C5.54824 8.83141 5.73476 8.75415 5.92926 8.75415C6.12375 8.75415 6.31027 8.83141 6.4478 8.96894C6.58533 9.10647 6.66259 9.29299 6.66259 9.48748V16.8208C6.66259 17.0153 6.58533 17.2018 6.4478 17.3394C6.31027 17.4769 6.12375 17.5542 5.92926 17.5542Z" fill="#101820"/>
</svg>
