<svg width="21" height="20" viewBox="0 0 21 20" fill="none" xmlns="http://www.w3.org/2000/svg">
<path d="M6.32527 9.33554L6.32456 9.3359C6.32384 9.33661 6.32384 9.33733 6.32384 9.33733C6.27472 9.38716 6.2378 9.44739 6.20768 9.51157C6.19944 9.5277 6.1937 9.5424 6.18725 9.55925C6.18079 9.57574 6.17183 9.5908 6.16681 9.60836L4.72992 14.9236C4.67327 15.1344 4.7335 15.3592 4.8873 15.5137C5.00346 15.6295 5.15905 15.6922 5.31787 15.6922C5.37093 15.6922 5.42506 15.6854 5.47669 15.6707L10.5876 14.2894C10.6213 14.2951 10.6535 14.3091 10.6876 14.3091C10.8439 14.3091 10.9998 14.2496 11.1189 14.1306L19.3953 5.85337C19.8363 5.41204 20.0801 4.82517 20.0801 4.20101C20.0801 3.57685 19.8363 2.98998 19.3953 2.54865L17.9061 1.05942C17.0238 0.176417 15.4826 0.177851 14.6018 1.05942L6.32527 9.33554ZM15.4643 1.92091C15.8852 1.49895 16.6223 1.49931 17.0446 1.92127L18.5338 3.41015C18.7454 3.62131 18.8615 3.90202 18.8615 4.20101C18.8615 4.50001 18.7454 4.78036 18.5338 4.99188L18.0857 5.44001L15.0155 2.37012L15.4643 1.92091ZM14.1536 3.23197L17.2239 6.30186L10.6883 12.8378L7.61733 9.76754L14.1536 3.23197ZM7.25846 11.1317L9.45862 13.3322L6.18366 14.218L7.06882 10.9427L7.25846 11.1317Z" fill="black"/>
<path d="M14.935 6.38204L14.073 5.52026L10.249 9.34536L11.111 10.2071L14.935 6.38204Z" fill="black"/>
<path d="M0.689181 19.6494H17.0873C18.3765 19.6494 19.424 18.6008 19.424 17.312V9.05986H18.2054V17.3123C18.2054 17.9293 17.7043 18.4305 17.0873 18.4305H1.299V2.26043H11.7V1.0415H0.689181C0.352543 1.0415 0.0800781 1.31433 0.0800781 1.65097V19.0396C0.0800781 19.3762 0.352185 19.6494 0.689181 19.6494Z" fill="black"/>
</svg>
