<svg width="32" height="33" viewBox="0 0 32 33" fill="none" xmlns="http://www.w3.org/2000/svg">
<path d="M16 14.9728C13.8535 14.9728 12.1152 16.7277 12.1152 18.8927C12.1152 21.0578 13.8535 22.8127 16 22.8127C18.1464 22.8127 19.8847 21.0578 19.8847 18.8927C19.8847 16.7277 18.1465 14.9728 16 14.9728Z" fill="#D9D9D9"/>
<path d="M29.9229 9.40544H26.2588C25.4414 9.40544 24.7002 8.92106 24.3652 8.16912L23.2686 5.71206C22.9336 4.96106 22.1914 4.47668 21.374 4.47668H10.626C9.80863 4.47668 9.06644 4.96106 8.7305 5.71206L7.63481 8.16912C7.29981 8.92106 6.55863 9.40544 5.74119 9.40544H2.07713C0.929688 9.40544 0 10.3439 0 11.5002V27.2707C0 28.4269 0.929688 29.3654 2.07713 29.3654H17.3428H29.9228C31.0693 29.3654 31.9999 28.4269 31.9999 27.2707V11.5002C32 10.3439 31.0693 9.40544 29.9229 9.40544ZM16 26.1613C12.0195 26.1613 8.79394 22.9074 8.79394 18.8927C8.79394 14.8781 12.0196 11.6232 16 11.6232C19.9804 11.6232 23.2061 14.8781 23.2061 18.8927C23.2061 22.9074 19.9805 26.1613 16 26.1613Z" fill="#D9D9D9"/>
</svg>
